<svg xmlns="http://www.w3.org/2000/svg" width="200" height="200" version="1.1"><g><title>Layer 1</title><g id="svg_22"><path id="svg_1" fill="#5E7F22" d="m101.47571,4.53825c0.26291,0.12961 0.52498,0.26094 0.78635,0.39362c0.14588,0.07249 0.29176,0.14498 0.44206,0.21966c0.4897,0.24382 0.97825,0.48985 1.46684,0.73588c0.35305,0.17635 0.70616,0.35257 1.05934,0.52866c0.97328,0.48576 1.94557,0.97348 2.91772,1.46151c1.06349,0.53345 2.12789,1.06508 3.19218,1.59694c1.83196,0.9158 3.66337,1.8327 5.49436,2.75043c2.62379,1.31509 5.24854,2.62822 7.87347,3.94102c6.3113,3.1577 12.62124,6.31813 18.93135,9.47822c14.09476,7.05544 28.18952,14.11088 42.71139,21.38012c0,34.94275 0,69.88551 0,105.88713c-14.15923,7.09573 -28.31846,14.19146 -42.90676,21.50222c-4.47705,2.24564 -8.95409,4.49128 -13.56681,6.80496c-5.45115,2.72911 -5.45115,2.72911 -8.00001,4.00419c-1.90558,0.95357 -3.81011,1.90921 -5.71415,2.86585c-1.94028,0.97479 -3.88174,1.94719 -5.8243,2.91744c-1.05488,0.52697 -2.10924,1.05492 -3.16224,1.58563c-0.95107,0.47932 -1.90351,0.95576 -2.85717,1.4299c-0.34557,0.17245 -0.6906,0.34598 -1.03506,0.52064c-0.46756,0.2369 -0.93688,0.4699 -1.40684,0.70199c-0.13484,0.06947 -0.26967,0.13894 -0.40859,0.21052c-0.84241,0.40945 -1.35335,0.5191 -2.25029,0.24132c-0.50616,-0.2177 -0.99043,-0.44339 -1.4806,-0.69222c-0.21882,-0.10873 -0.21882,-0.10873 -0.44206,-0.21966c-0.4897,-0.24381 -0.97825,-0.48985 -1.46684,-0.73588c-0.35305,-0.17635 -0.70616,-0.35257 -1.05934,-0.52866c-0.97328,-0.48576 -1.94557,-0.97348 -2.91772,-1.46151c-1.06349,-0.53345 -2.12789,-1.06508 -3.19218,-1.59694c-1.83196,-0.9158 -3.66337,-1.8327 -5.49436,-2.75043c-2.62379,-1.31509 -5.24854,-2.62822 -7.87347,-3.94102c-6.3113,-3.1577 -12.62124,-6.31813 -18.93135,-9.47822c-14.09476,-7.05544 -28.18952,-14.11088 -42.71139,-21.38012c0,-34.94275 0,-69.88551 0,-105.88713c14.15923,-7.09573 28.31846,-14.19146 42.90676,-21.50222c4.47705,-2.24564 8.95409,-4.49128 13.56681,-6.80496c5.45115,-2.72911 5.45115,-2.72911 8.00001,-4.00419c1.90558,-0.95357 3.81011,-1.90921 5.71415,-2.86585c1.94028,-0.97478 3.88174,-1.94719 5.8243,-2.91744c1.05488,-0.52697 2.10924,-1.05492 3.16224,-1.58563c0.95107,-0.47931 1.90351,-0.95576 2.85717,-1.4299c0.34557,-0.17245 0.6906,-0.34597 1.03506,-0.52064c0.46756,-0.2369 0.93688,-0.46989 1.40684,-0.70199c0.13484,-0.06947 0.26967,-0.13894 0.4086,-0.21052c1.16145,-0.56452 1.7882,-0.44006 2.94455,0.05729z"/><path id="svg_2" fill="#6B4723" d="m186.35077,47.21967c0,34.87828 0,69.75657 0,105.69177c-21.26302,10.63755 -21.26302,10.63755 -42.9556,21.49001c-4.48416,2.24386 -8.96832,4.48772 -13.58837,6.79957c-5.45468,2.72822 -5.45468,2.72822 -8.00419,4.00314c-1.90786,0.95412 -3.81546,1.90877 -5.72293,2.86366c-1.94291,0.97261 -3.88611,1.94464 -5.82959,2.91612c-1.05578,0.52777 -2.11143,1.05579 -3.16675,1.5845c-0.9525,0.47719 -1.90534,0.95367 -2.85848,1.42957c-0.34619,0.17301 -0.69225,0.3463 -1.03817,0.51986c-0.46811,0.23483 -0.93669,0.46871 -1.40541,0.70235c-0.13689,0.06896 -0.27378,0.13792 -0.41482,0.20896c-0.93113,0.46227 -0.93113,0.46227 -1.36646,0.46227c0,-34.87828 0,-69.75657 0,-105.69177c14.17535,-7.0917 28.35069,-14.18341 42.9556,-21.49001c4.48416,-2.24386 8.96832,-4.48772 13.58837,-6.79957c5.45468,-2.72822 5.45468,-2.72822 8.00419,-4.00314c1.90786,-0.95412 3.81546,-1.90877 5.72293,-2.86366c1.94291,-0.97261 3.88611,-1.94464 5.82959,-2.91612c1.05578,-0.52777 2.11143,-1.05579 3.16675,-1.5845c0.9525,-0.47719 1.90534,-0.95367 2.85848,-1.42957c0.34619,-0.17301 0.69225,-0.3463 1.03817,-0.51986c0.46811,-0.23483 0.93669,-0.46871 1.40541,-0.70235c0.13689,-0.06896 0.27378,-0.13792 0.41482,-0.20896c0.93113,-0.46227 0.93113,-0.46227 1.36646,-0.46227z"/><path id="svg_3" fill="#9D6833" d="m18.92406,62.84877c0.8096,0.26987 1.47926,0.52079 2.22684,0.89898c0.25739,0.12943 0.25739,0.12943 0.51998,0.26147c0.21371,0.10864 0.42743,0.21727 0.64762,0.3292c0.68499,0.34653 1.36999,0.69305 2.07574,1.05008c0,2.25645 0,4.5129 0,6.83773c0.38682,0.12894 0.77364,0.25788 1.17218,0.39073c0.3334,0.15046 0.66374,0.30786 0.99079,0.47167c0.28054,0.13982 0.28054,0.13982 0.56674,0.28246c0.19846,0.09993 0.39691,0.19986 0.60139,0.30282c0.20602,0.10305 0.41204,0.20611 0.6243,0.31229c0.43384,0.21721 0.86749,0.43481 1.30095,0.65275c0.6662,0.33489 1.33302,0.66852 1.99995,1.00196c0.42142,0.21119 0.8428,0.42245 1.26414,0.63379c0.20044,0.10033 0.40087,0.20065 0.60738,0.30402c0.27592,0.13889 0.27592,0.13889 0.55741,0.2806c0.16262,0.08168 0.32524,0.16337 0.49279,0.24752c0.37161,0.19887 0.37161,0.19887 0.56697,0.39423c0.03123,0.49208 0.05067,0.97944 0.06182,1.4721c0.00609,0.22074 0.00609,0.22074 0.0123,0.44593c0.01281,0.47177 0.02431,0.94356 0.03578,1.41537c0.00844,0.31912 0.01696,0.63824 0.02557,0.95736c0.02112,0.78385 0.04046,1.56771 0.05991,2.35161c1.67622,0.83811 3.35244,1.67622 5.07946,2.53973c0.06447,-6.51147 0.12894,-13.02295 0.19536,-19.73174c3.71191,1.75827 3.71191,1.75827 5.47018,2.73509c0.06447,4.38396 0.12894,8.76792 0.19536,13.28473c1.67622,0.83811 3.35244,1.67622 5.07946,2.53973c0,-2.12751 0,-4.25502 0,-6.447c1.90717,0.63573 3.67208,1.64068 5.47018,2.53973c0,4.44843 0,8.89686 0,13.4801c0.58023,0.19341 0.58023,0.19341 1.17218,0.39073c0.35481,0.16249 0.70644,0.33209 1.05466,0.50825c0.17159,0.08629 0.34319,0.17257 0.51998,0.26147c0.21371,0.10864 0.42743,0.21727 0.64762,0.3292c1.02749,0.51979 1.02749,0.51979 2.07574,1.05008c0,-2.12751 0,-4.25502 0,-6.447c0.77587,0.25862 1.41939,0.48998 2.1345,0.84938c0.17163,0.086 0.34325,0.172 0.52008,0.26061c0.17566,0.08902 0.35131,0.17805 0.53229,0.26977c0.17943,0.08978 0.35887,0.17956 0.54374,0.27206c1.32139,0.66509 1.32139,0.66509 1.54421,0.88791c0.03123,0.49208 0.05067,0.97944 0.06182,1.4721c0.00406,0.14716 0.00812,0.29432 0.0123,0.44593c0.01281,0.47177 0.02431,0.94356 0.03578,1.41537c0.00844,0.31912 0.01696,0.63824 0.02557,0.95736c0.02112,0.78385 0.04046,1.56771 0.05991,2.35161c1.67622,0.83811 3.35244,1.67622 5.07946,2.53973c0.06447,-2.12751 0.12894,-4.25502 0.19536,-6.447c0.58023,0.274 1.16046,0.548 1.75827,0.8303c0.17956,0.08468 0.35912,0.16936 0.54412,0.25661c0.14682,0.06944 0.29364,0.13889 0.44491,0.21044c0.14732,0.06957 0.29465,0.13914 0.44644,0.21082c0.69726,0.33656 1.38858,0.68532 2.08108,1.03157c0.06447,-2.12751 0.12894,-4.25502 0.19536,-6.447c0.5762,0.26997 1.1524,0.53994 1.74606,0.81809c0.17778,0.0829 0.35556,0.1658 0.53873,0.25122c0.31373,0.14784 0.62517,0.30059 0.93484,0.45674c0.48581,0.24314 0.48581,0.24314 1.00019,0.39006c0.56322,0.20833 0.8596,0.35839 1.25036,0.81899c0.25247,1.1343 0.2275,2.2233 0.20757,3.38223c-0.00403,1.07584 -0.00806,2.15169 -0.01221,3.26013c3.48138,1.74069 6.96276,3.48138 10.54964,5.27482c0,-2.12751 0,-4.25502 0,-6.447c0.77587,0.25862 1.41939,0.48998 2.1345,0.84938c0.17163,0.086 0.34325,0.172 0.52008,0.26061c0.17566,0.08902 0.35131,0.17805 0.53229,0.26977c0.17943,0.08978 0.35887,0.17956 0.54374,0.27206c1.32139,0.66509 1.32139,0.66509 1.54421,0.88791c0.01931,0.49183 0.02575,0.97831 0.02404,1.47024c0.00022,0.15657 0.00045,0.31315 0.00068,0.47446c0.00052,0.53145 -0.00036,1.06288 -0.00123,1.59433c0.00009,0.38214 0.00026,0.76427 0.00051,1.1464c0.00044,1.05537 -0.00035,2.11074 -0.00132,3.16612c-0.00084,1.1361 -0.00056,2.2722 -0.00041,3.4083c0.0001,1.97013 -0.00051,3.94026 -0.00161,5.91039c-0.00158,2.84851 -0.0021,5.69702 -0.00234,8.54553c-0.00041,4.62099 -0.00173,9.24198 -0.00358,13.86298c-0.00179,4.49012 -0.00318,8.98024 -0.00401,13.47037c-0.00003,0.13833 -0.00005,0.27666 -0.00008,0.41917c-0.00026,1.3891 -0.00051,2.7782 -0.00075,4.1673c-0.00049,2.82993 -0.00105,5.65986 -0.00163,8.4898c-0.00003,0.13013 -0.00005,0.26025 -0.00008,0.39432c-0.0018,8.69423 -0.0049,17.38846 -0.00819,26.08269c-0.92895,-0.28359 -1.78164,-0.66809 -2.64668,-1.10394c-0.14517,-0.07236 -0.29033,-0.14472 -0.4399,-0.21927c-0.48713,-0.24305 -0.9737,-0.48721 -1.46027,-0.73136c-0.35232,-0.17608 -0.70468,-0.35208 -1.05707,-0.52803c-0.96887,-0.484 -1.93726,-0.96897 -2.90556,-1.45411c-1.04404,-0.52287 -2.08854,-1.04483 -3.13298,-1.5669c-1.80972,-0.90476 -3.61915,-1.81008 -5.42838,-2.7158c-1.89751,-0.94991 -3.79517,-1.8995 -5.69306,-2.84865c-0.17701,-0.08853 -0.17701,-0.08853 -0.3576,-0.17884c-0.5993,-0.29972 -1.1986,-0.59942 -1.7979,-0.89913c-4.24479,-2.12281 -8.48922,-4.24634 -12.73343,-6.37029c-4.12319,-2.06339 -8.24654,-4.12644 -12.37011,-6.18906c-0.25931,-0.12971 -0.51861,-0.25941 -0.77792,-0.38912c-2.00762,-1.00422 -4.01525,-2.00842 -6.02289,-3.01261c-9.84286,-4.92327 -19.68488,-9.84821 -29.52702,-14.77292c0,-28.43128 0,-56.86256 0,-86.1554c3.71191,1.75827 3.71191,1.75827 5.27482,2.53973c0,-2.12751 0,-4.25502 0,-6.447z"/><path id="svg_4" fill="#405717" d="m186.35077,47.21967c0,4.25502 0,8.51004 0,12.89401c-4.82548,2.53973 -4.82548,2.53973 -5.27482,2.53973c0,2.25645 0,4.5129 0,6.83773c-1.37073,0.68741 -2.74149,1.37475 -4.11261,2.06136c-0.63843,0.31973 -1.2768,0.63961 -1.915,0.95981c-0.61419,0.30815 -1.22856,0.61592 -1.84307,0.92343c-0.34959,0.17506 -0.69898,0.35052 -1.04837,0.52598c-0.2112,0.10561 -0.42239,0.21121 -0.63999,0.32002c-0.18698,0.09371 -0.37396,0.18741 -0.56661,0.28396c-0.424,0.20025 -0.424,0.20025 -0.61936,0.20025c-0.06447,-2.12751 -0.12894,-4.25502 -0.19536,-6.447c-1.67622,0.83811 -3.35244,1.67622 -5.07946,2.53973c-0.06447,2.19198 -0.12894,4.38396 -0.19536,6.64237c-0.58023,0.30623 -1.16046,0.61247 -1.75827,0.92798c-0.17956,0.09488 -0.35912,0.18976 -0.54412,0.28751c-0.14682,0.07738 -0.29364,0.15475 -0.44491,0.23448c-0.14732,0.07775 -0.29465,0.15551 -0.44644,0.23562c-0.69005,0.35697 -1.38619,0.70206 -2.08108,1.04951c-0.06447,2.19198 -0.12894,4.38396 -0.19536,6.64237c-0.5762,0.30623 -1.1524,0.61247 -1.74606,0.92798c-0.17778,0.09488 -0.35556,0.18976 -0.53873,0.28751c-0.14633,0.07738 -0.29266,0.15475 -0.44343,0.23448c-0.1463,0.07775 -0.2926,0.15551 -0.44334,0.23562c-0.75455,0.37431 -1.52893,0.70742 -2.29862,1.04951c-0.06447,-2.12751 -0.12894,-4.25502 -0.19536,-6.447c-1.5259,0.77068 -1.5259,0.77068 -3.05094,1.54307c-0.18941,0.09519 -0.37882,0.19039 -0.57398,0.28847c-0.19438,0.09822 -0.38877,0.19643 -0.58905,0.29762c-0.47477,0.2152 -0.47477,0.2152 -0.8655,0.2152c0,2.25645 0,4.5129 0,6.83773c-0.83005,0.41906 -1.6601,0.83811 -2.51531,1.26986c-0.26163,0.13259 -0.52325,0.26518 -0.79281,0.40179c-0.20528,0.10313 -0.41055,0.20625 -0.62205,0.31251c-0.21075,0.1064 -0.42151,0.2128 -0.63865,0.32243c-0.51064,0.23314 -0.51064,0.23314 -0.90136,0.23314c0,-4.31949 0,-8.63898 0,-13.08937c-1.67622,0.83811 -3.35244,1.67622 -5.07946,2.53973c-0.12894,0 -0.25788,0 -0.39073,0c0,2.25645 0,4.5129 0,6.83773c-0.83408,0.41906 -1.66816,0.83811 -2.52752,1.26986c-0.2634,0.13259 -0.52681,0.26518 -0.7982,0.40179c-0.20577,0.10313 -0.41153,0.20625 -0.62353,0.31251c-0.21178,0.1064 -0.42356,0.2128 -0.64175,0.32243c-0.48846,0.23314 -0.48846,0.23314 -0.68382,0.23314c-0.06447,-4.31949 -0.12894,-8.63898 -0.19536,-13.08937c-1.67622,0.83811 -3.35244,1.67622 -5.07946,2.53973c-0.06447,6.57594 -0.12894,13.15189 -0.19536,19.9271c-3.71191,1.95364 -3.71191,1.95364 -5.47018,2.73509c-0.06447,-2.12751 -0.12894,-4.25502 -0.19536,-6.447c-0.72881,0.36667 -1.45763,0.73335 -2.20853,1.11113c-0.58036,0.29144 -1.16079,0.58271 -1.74128,0.87388c-0.6133,0.30768 -1.22645,0.61564 -1.83927,0.92426c-0.70271,0.35388 -1.40604,0.7065 -2.10941,1.05905c-0.3303,0.16666 -0.3303,0.16666 -0.66726,0.33669c-0.20336,0.10169 -0.40672,0.20339 -0.61624,0.30816c-0.1796,0.09024 -0.35921,0.18047 -0.54426,0.27344c-0.43266,0.19284 -0.43266,0.19284 -0.82339,0.19284c0,-2.12751 0,-4.25502 0,-6.447c-1.65449,0.83497 -1.65449,0.83497 -3.30812,1.67166c-0.20528,0.10313 -0.41055,0.20625 -0.62205,0.31251c-0.31613,0.1596 -0.31613,0.1596 -0.63865,0.32243c-0.51064,0.23314 -0.51064,0.23314 -0.90136,0.23314c0,2.25645 0,4.5129 0,6.83773c-0.83408,0.41906 -1.66816,0.83811 -2.52752,1.26986c-0.2634,0.13259 -0.52681,0.26518 -0.7982,0.40179c-0.20577,0.10313 -0.41153,0.20625 -0.62353,0.31251c-0.21178,0.1064 -0.42356,0.2128 -0.64175,0.32243c-0.48846,0.23314 -0.48846,0.23314 -0.68382,0.23314c0,-6.51147 0,-13.02295 0,-19.73174c16.45544,-8.23419 16.45544,-8.23419 24.56895,-12.29275c0.12113,-0.06059 0.24225,-0.12118 0.36705,-0.18361c2.63213,-1.31665 5.26428,-2.63327 7.89645,-3.94985c1.29073,-0.64561 2.58145,-1.29122 3.87218,-1.93684c0.12845,-0.06425 0.25689,-0.1285 0.38923,-0.19469c4.1667,-2.08418 8.33314,-4.16887 12.49946,-6.25383c4.27981,-2.14174 8.55987,-4.28298 12.84025,-6.42357c0.60395,-0.30203 1.20789,-0.60406 1.81182,-0.9061c0.11887,-0.05945 0.23774,-0.11889 0.36021,-0.18014c1.91697,-0.95871 3.83367,-1.91797 5.75026,-2.87743c1.92471,-0.9635 3.8497,-1.92642 5.77498,-2.88879c1.04401,-0.52188 2.08789,-1.04402 3.13143,-1.56683c0.95382,-0.47786 1.90799,-0.955 2.86246,-1.43156c0.3467,-0.17327 0.69326,-0.3468 1.03967,-0.52062c0.46801,-0.23478 0.93648,-0.46861 1.40509,-0.70218c0.20533,-0.10343 0.20533,-0.10343 0.4148,-0.20895c0.93115,-0.46228 0.93115,-0.46228 1.36648,-0.46228z"/><path id="svg_5" fill="#688D25" d="m31.33299,39.72817c0.16007,0.08053 0.32015,0.16107 0.48507,0.24404c0.34487,0.17385 0.68879,0.34958 1.03185,0.52698c0.52597,0.27085 1.0549,0.53458 1.58556,0.79609c1.16633,0.57495 2.32903,1.15703 3.49167,1.73938c0.44322,0.22164 0.88646,0.44324 1.32971,0.66481c0.94615,0.47306 1.89219,0.94635 2.83811,1.41986c1.36757,0.68459 2.73536,1.36873 4.1032,2.05277c2.22034,1.11038 4.4405,2.22111 6.66056,3.33207c2.15393,1.07786 4.30795,2.15556 6.46207,3.23304c0.13324,0.06665 0.26648,0.13329 0.40376,0.20196c0.66857,0.33441 1.33715,0.66882 2.00572,1.00323c5.52837,2.76519 11.05645,5.53096 16.58435,8.29709c-0.91267,0.69774 -1.89561,1.19048 -2.91825,1.70943c-0.19329,0.10149 -0.38657,0.20298 -0.58571,0.30755c-0.18724,0.09494 -0.37448,0.18988 -0.56739,0.2877c-0.16997,0.08732 -0.33995,0.17465 -0.51507,0.26462c-0.70688,0.2377 -1.21801,0.07488 -1.89683,-0.20666c-0.14444,-0.07233 -0.28887,-0.14466 -0.43768,-0.21918c-0.168,-0.08341 -0.33599,-0.16683 -0.50907,-0.25277c-0.18263,-0.09217 -0.36526,-0.18434 -0.55343,-0.2793c-0.19549,-0.09749 -0.39099,-0.19499 -0.5924,-0.29544c-0.65629,-0.32766 -1.31172,-0.65699 -1.96718,-0.98632c-0.46973,-0.23495 -0.93951,-0.4698 -1.40934,-0.70454c-1.01214,-0.50592 -2.02384,-1.01269 -3.03526,-1.52004c-1.46234,-0.73355 -2.92532,-1.4658 -4.38846,-2.19774c-2.37385,-1.18757 -4.74718,-2.37618 -7.12018,-3.56545c-2.30511,-1.15524 -4.61046,-2.30999 -6.91614,-3.46408c-0.14213,-0.07114 -0.28426,-0.14228 -0.43069,-0.21558c-0.71303,-0.3569 -1.42606,-0.71378 -2.13909,-1.07066c-5.91503,-2.96055 -11.82921,-5.92281 -17.74284,-8.88617c0,-0.12894 0,-0.25788 0,-0.39073c0.64507,-0.41336 1.29907,-0.80503 1.96628,-1.18167c0.33313,-0.19325 0.65747,-0.40141 0.98135,-0.6098c1.53523,-0.84994 2.29322,-0.83454 3.79575,-0.03449z"/><path id="svg_6" fill="#688D25" d="m102.30315,53.52292c0.12851,0.06388 0.25702,0.12776 0.38942,0.19358c0.42825,0.21312 0.85594,0.42735 1.28363,0.64158c0.30778,0.15347 0.6156,0.30687 0.92344,0.46021c0.83422,0.4158 1.66794,0.8326 2.50154,1.24965c0.69567,0.34794 1.39157,0.69541 2.08747,1.04289c1.64063,0.81923 3.28085,1.6393 4.92081,2.45987c1.69378,0.84748 3.38827,1.69352 5.08311,2.53886c1.45451,0.72554 2.90856,1.45197 4.36225,2.17914c0.86856,0.43446 1.7373,0.86857 2.60648,1.3018c0.81624,0.4069 1.63191,0.81491 2.44715,1.22381c0.29994,0.1502 0.60009,0.3 0.90044,0.44938c0.4085,0.20323 0.81625,0.40789 1.22384,0.61293c0.34321,0.17158 0.34321,0.17158 0.69335,0.34663c0.50893,0.29107 0.50893,0.29107 0.7043,0.6818c-0.70372,0.3688 -1.40921,0.73394 -2.11652,1.09582c-0.2402,0.12353 -0.4799,0.24804 -0.71907,0.37356c-0.34444,0.18054 -0.69088,0.35725 -1.03735,0.53386c-0.20769,0.10742 -0.41537,0.21485 -0.62935,0.32553c-0.85472,0.31241 -1.34801,0.1065 -2.16846,-0.25558c-0.23543,-0.11649 -0.47023,-0.23427 -0.70451,-0.35308c-0.13007,-0.06479 -0.26015,-0.12957 -0.39416,-0.19632c-0.43491,-0.21697 -0.86895,-0.4356 -1.30302,-0.65424c-0.3119,-0.15603 -0.62385,-0.31196 -0.93586,-0.4678c-0.84648,-0.42316 -1.69223,-0.84776 -2.53786,-1.27261c-0.884,-0.44383 -1.76866,-0.88633 -2.65325,-1.32898c-1.67484,-0.83833 -3.34907,-1.67785 -5.02309,-2.5178c-1.90592,-0.95623 -3.8125,-1.91113 -5.71913,-2.86592c-3.92193,-1.96403 -7.84302,-3.92973 -11.76356,-5.89653c0,-0.12894 0,-0.25788 0,-0.39073c0.69936,-0.3739 1.40123,-0.74252 2.10579,-1.10655c0.23909,-0.12445 0.47746,-0.25029 0.71506,-0.37756c0.34239,-0.18309 0.68768,-0.36072 1.03301,-0.5382c0.20666,-0.10845 0.41333,-0.21689 0.62625,-0.32863c1.11045,-0.34977 2.10366,0.34341 3.09786,0.83964z"/><path id="svg_7" fill="#688D25" d="m79.62513,20.48794c0.19215,0.09635 0.3843,0.19269 0.58227,0.29196c0.22161,0.1104 0.44323,0.22081 0.67156,0.33456c0.24373,0.1229 0.48744,0.24582 0.73115,0.36876c0.25801,0.12909 0.51607,0.25807 0.77418,0.38696c0.69956,0.3497 1.39839,0.70083 2.09709,1.05223c0.73068,0.36717 1.46203,0.73302 2.19331,1.09901c1.38424,0.69303 2.76787,1.38725 4.1513,2.08191c1.57519,0.79087 3.15106,1.58042 4.72698,2.36985c3.24136,1.62374 6.48188,3.24916 9.72186,4.87568c0,0.12894 0,0.25788 0,0.39073c-0.69936,0.3739 -1.40123,0.74252 -2.10579,1.10655c-0.23909,0.12445 -0.47746,0.25029 -0.71506,0.37756c-0.34239,0.18309 -0.68768,0.36072 -1.03301,0.5382c-0.20666,0.10845 -0.41333,0.21689 -0.62625,0.32863c-1.04815,0.33014 -1.94771,-0.26557 -2.89019,-0.73581c-0.21831,-0.10846 -0.43663,-0.21693 -0.66155,-0.32868c-0.23901,-0.11973 -0.47802,-0.23948 -0.71702,-0.35924c-0.25389,-0.12652 -0.50781,-0.25297 -0.76176,-0.37937c-0.6873,-0.34234 -1.37409,-0.68568 -2.06077,-1.02927c-0.57331,-0.28676 -1.14686,-0.57306 -1.7204,-0.85936c-1.35215,-0.67499 -2.70388,-1.35081 -4.05536,-2.02714c-1.39548,-0.69833 -2.79167,-1.39522 -4.18822,-2.09141c-1.199,-0.59778 -2.39755,-1.19647 -3.59574,-1.79588c-0.7157,-0.35803 -1.43156,-0.7157 -2.14787,-1.0725c-0.67256,-0.33506 -1.34456,-0.67124 -2.01613,-1.0083c-0.24702,-0.12374 -0.49424,-0.24708 -0.74167,-0.36999c-0.33662,-0.1673 -0.67246,-0.33617 -1.00825,-0.50513c-0.18847,-0.09422 -0.37693,-0.18843 -0.57111,-0.28551c-0.42351,-0.24836 -0.42351,-0.24836 -0.61887,-0.63908c0.70372,-0.3688 1.40922,-0.73394 2.11652,-1.09582c0.2402,-0.12353 0.4799,-0.24804 0.71907,-0.37356c0.34444,-0.18054 0.69087,-0.35725 1.03734,-0.53386c0.20769,-0.10742 0.41537,-0.21485 0.62935,-0.32553c0.81415,-0.29758 1.29938,-0.12555 2.08303,0.21286z"/><path id="svg_8" fill="#688D25" d="m166.33818,42.2576c0.27185,0.13508 0.54306,0.27145 0.81375,0.40885c0.22316,0.11151 0.22316,0.11151 0.45082,0.22528c0.48998,0.24519 0.9791,0.49203 1.46824,0.7389c0.3402,0.17065 0.68045,0.34119 1.02076,0.51163c0.89434,0.44829 1.78797,0.89798 2.68146,1.34797c0.91234,0.45917 1.82535,0.91701 2.7383,1.37496c1.79035,0.89831 3.57994,1.79811 5.36907,2.69884c0,0.12894 0,0.25788 0,0.39073c-0.64508,0.41336 -1.29907,0.80503 -1.96628,1.18168c-0.33313,0.19325 -0.65747,0.40141 -0.98135,0.6098c-0.80678,0.44665 -1.56624,0.85448 -2.5128,0.67671c-0.96762,-0.33159 -1.84409,-0.85227 -2.73067,-1.35547c-0.68037,-0.37546 -1.37108,-0.7234 -2.06794,-1.06697c-0.13105,-0.06463 -0.26209,-0.12926 -0.39711,-0.19584c-0.27233,-0.13419 -0.54469,-0.26832 -0.81708,-0.40238c-0.69781,-0.34462 -1.39333,-0.69379 -2.08892,-1.04286c-0.28374,-0.14228 -0.56749,-0.28456 -0.85123,-0.42683c-0.14154,-0.07099 -0.28309,-0.14198 -0.42892,-0.21512c-0.72954,-0.36579 -1.45932,-0.73111 -2.18908,-1.09648c-1.42132,-0.71169 -2.84238,-1.42388 -4.26328,-2.13641c0.91267,-0.69774 1.8956,-1.19048 2.91825,-1.70943c0.19328,-0.10149 0.38657,-0.20298 0.58571,-0.30754c0.18724,-0.09494 0.37448,-0.18989 0.56739,-0.2877c0.16997,-0.08732 0.33995,-0.17465 0.51507,-0.26462c0.8313,-0.27954 1.38001,-0.0108 2.16583,0.34232z"/><path id="svg_9" fill="#688D25" d="m97.86092,8.02483c0.20602,0.10259 0.41204,0.20518 0.6243,0.31088c0.43385,0.21637 0.8675,0.43314 1.30095,0.65029c0.66594,0.33328 1.3329,0.66446 1.99995,0.99552c0.42144,0.2105 0.84282,0.42112 1.26414,0.63188c0.30065,0.14898 0.30065,0.14898 0.60738,0.30096c0.18395,0.09258 0.36789,0.18516 0.55741,0.28055c0.16262,0.08125 0.32524,0.1625 0.49279,0.24621c0.37161,0.22236 0.37161,0.22236 0.56697,0.61309c-0.69936,0.3739 -1.40123,0.74252 -2.10579,1.10655c-0.23909,0.12445 -0.47746,0.25029 -0.71506,0.37756c-0.34239,0.18309 -0.68768,0.36072 -1.033,0.5382c-0.20666,0.10845 -0.41333,0.21689 -0.62625,0.32863c-1.32632,0.41776 -2.75317,-0.66286 -3.93045,-1.25203c-0.20602,-0.10259 -0.41204,-0.20518 -0.6243,-0.31088c-0.43385,-0.21637 -0.8675,-0.43314 -1.30095,-0.65029c-0.66594,-0.33328 -1.3329,-0.66446 -1.99995,-0.99551c-0.42144,-0.2105 -0.84283,-0.42112 -1.26414,-0.63188c-0.30065,-0.14898 -0.30065,-0.14898 -0.60738,-0.30096c-0.18394,-0.09258 -0.36789,-0.18516 -0.55741,-0.28055c-0.16262,-0.08125 -0.32524,-0.1625 -0.49279,-0.24621c-0.37161,-0.22236 -0.37161,-0.22236 -0.56697,-0.61309c0.69936,-0.3739 1.40123,-0.74252 2.10579,-1.10655c0.23909,-0.12445 0.47746,-0.25029 0.71506,-0.37756c0.34239,-0.18309 0.68768,-0.36072 1.03301,-0.5382c0.20666,-0.10845 0.41333,-0.21689 0.62625,-0.32863c1.32631,-0.41776 2.75317,0.66286 3.93045,1.25203z"/><path id="svg_10" fill="#9E8F82" d="m89.255,151.15317c0.8096,0.26987 1.47926,0.52079 2.22684,0.89898c0.17159,0.08629 0.34319,0.17257 0.51998,0.26147c0.21371,0.10864 0.42743,0.21727 0.64762,0.3292c0.68499,0.34653 1.36999,0.69305 2.07574,1.05008c0,2.19198 0,4.38396 0,6.64237c-0.8096,-0.26987 -1.47926,-0.52079 -2.22684,-0.89898c-0.17159,-0.08629 -0.34319,-0.17257 -0.51998,-0.26147c-0.32057,-0.16295 -0.32057,-0.16295 -0.64762,-0.3292c-0.68499,-0.34653 -1.36999,-0.69305 -2.07574,-1.05008c0,-2.19198 0,-4.38396 0,-6.64237z"/><path id="svg_11" fill="#9E8F82" d="m56.82462,141.58035c0.8096,0.26987 1.47926,0.52079 2.22684,0.89898c0.17159,0.08629 0.34319,0.17257 0.51998,0.26147c0.21371,0.10864 0.42743,0.21727 0.64762,0.3292c0.68499,0.34653 1.36999,0.69305 2.07574,1.05008c0,2.19198 0,4.38396 0,6.64237c-0.8096,-0.26987 -1.47926,-0.52079 -2.22684,-0.89898c-0.17159,-0.08629 -0.34319,-0.17257 -0.51998,-0.26147c-0.32057,-0.16295 -0.32057,-0.16295 -0.64762,-0.3292c-0.68499,-0.34653 -1.36999,-0.69305 -2.07574,-1.05008c0,-2.19198 0,-4.38396 0,-6.64237z"/><path id="svg_12" fill="#6C6259" d="m148.64557,138.84525c0,2.19198 0,4.38396 0,6.64237c-0.83005,0.41906 -1.6601,0.83811 -2.51531,1.26986c-0.26163,0.13259 -0.52325,0.26518 -0.79281,0.40179c-0.20528,0.10313 -0.41055,0.20625 -0.62205,0.31251c-0.21075,0.1064 -0.42151,0.2128 -0.63865,0.32243c-0.51064,0.23314 -0.51064,0.23314 -0.90136,0.23314c0,-2.19198 0,-4.38396 0,-6.64237c0.83005,-0.41906 1.6601,-0.83811 2.51531,-1.26986c0.26163,-0.13259 0.52325,-0.26518 0.79281,-0.40179c0.20528,-0.10313 0.41055,-0.20625 0.62205,-0.31251c0.21075,-0.1064 0.42151,-0.2128 0.63865,-0.32243c0.51064,-0.23314 0.51064,-0.23314 0.90136,-0.23314z"/><path id="svg_13" fill="#6C6259" d="m126.9602,116.37843c0,2.19198 0,4.38396 0,6.64237c-0.5762,0.30623 -1.1524,0.61247 -1.74606,0.92798c-0.17778,0.09488 -0.35556,0.18976 -0.53873,0.28751c-0.2195,0.11607 -0.2195,0.11607 -0.44343,0.23448c-0.1463,0.07775 -0.2926,0.15551 -0.44334,0.23562c-0.75455,0.37431 -1.52893,0.70742 -2.29862,1.04951c0,-2.19198 0,-4.38396 0,-6.64237c0.58023,-0.30623 1.16046,-0.61247 1.75827,-0.92798c0.17956,-0.09488 0.35912,-0.18976 0.54412,-0.28751c2.88341,-1.5196 2.88341,-1.5196 3.16779,-1.5196z"/><path id="svg_14" fill="#6C6259" d="m181.07595,115.9877c0,2.19198 0,4.38396 0,6.64237c-0.83005,0.41906 -1.6601,0.83811 -2.51531,1.26986c-0.26163,0.13259 -0.52325,0.26518 -0.79281,0.40179c-0.20528,0.10313 -0.41055,0.20625 -0.62205,0.31251c-0.21075,0.1064 -0.42151,0.2128 -0.63865,0.32243c-0.51064,0.23314 -0.51064,0.23314 -0.90136,0.23314c0,-2.19198 0,-4.38396 0,-6.64237c0.83005,-0.41906 1.6601,-0.83811 2.51531,-1.26986c0.26163,-0.13259 0.52325,-0.26518 0.79281,-0.40179c0.20528,-0.10313 0.41055,-0.20625 0.62205,-0.31251c0.21075,-0.1064 0.42151,-0.2128 0.63865,-0.32243c0.51064,-0.23314 0.51064,-0.23314 0.90136,-0.23314z"/><path id="svg_15" fill="#6C6259" d="m110.74501,104.6566c0,2.19198 0,4.38396 0,6.64237c-0.83005,0.41906 -1.6601,0.83811 -2.51531,1.26986c-0.26163,0.13259 -0.52325,0.26518 -0.79281,0.40179c-0.20528,0.10313 -0.41055,0.20625 -0.62205,0.31251c-0.21075,0.1064 -0.42151,0.2128 -0.63865,0.32243c-0.51064,0.23314 -0.51064,0.23314 -0.90136,0.23314c0,-2.19198 0,-4.38396 0,-6.64237c0.83005,-0.41906 1.6601,-0.83811 2.51531,-1.26986c0.26163,-0.13259 0.52325,-0.26518 0.79281,-0.40179c0.20528,-0.10313 0.41055,-0.20625 0.62205,-0.31251c0.21075,-0.1064 0.42151,-0.2128 0.63865,-0.32243c0.51064,-0.23314 0.51064,-0.23314 0.90136,-0.23314z"/><path id="svg_16" fill="#9E8F82" d="m73.03981,103.09369c0.5762,0.26997 1.1524,0.53994 1.74606,0.81809c0.26667,0.12435 0.26667,0.12435 0.53873,0.25122c0.14633,0.06896 0.29266,0.13791 0.44343,0.20896c0.1463,0.06855 0.2926,0.13709 0.44334,0.20772c0.77874,0.39243 1.53633,0.82562 2.29862,1.24912c0,2.19198 0,4.38396 0,6.64237c-0.5762,-0.26997 -1.1524,-0.53994 -1.74606,-0.81809c-0.17778,-0.0829 -0.35556,-0.1658 -0.53873,-0.25122c-0.14633,-0.06896 -0.29266,-0.13791 -0.44343,-0.20896c-0.1463,-0.06855 -0.2926,-0.13709 -0.44334,-0.20772c-0.77874,-0.39243 -1.53633,-0.82562 -2.29862,-1.24912c0,-2.19198 0,-4.38396 0,-6.64237z"/><path id="svg_17" fill="#9E8F82" d="m35.13925,97.42815c0.5762,0.26997 1.1524,0.53994 1.74606,0.81809c0.26667,0.12435 0.26667,0.12435 0.53873,0.25122c0.14633,0.06896 0.29266,0.13791 0.44343,0.20896c0.1463,0.06855 0.2926,0.13709 0.44334,0.20772c0.77874,0.39243 1.53633,0.82562 2.29862,1.24912c0,2.19198 0,4.38396 0,6.64237c-0.5762,-0.26997 -1.1524,-0.53994 -1.74606,-0.81809c-0.17778,-0.0829 -0.35556,-0.1658 -0.53873,-0.25122c-0.14633,-0.06896 -0.29266,-0.13791 -0.44343,-0.20896c-0.1463,-0.06855 -0.2926,-0.13709 -0.44334,-0.20772c-0.77874,-0.39243 -1.53633,-0.82562 -2.29862,-1.24912c0,-2.19198 0,-4.38396 0,-6.64237z"/><path id="svg_18" fill="#6C6259" d="m164.86076,84.14341c0,2.19198 0,4.38396 0,6.64237c-0.5762,0.30623 -1.1524,0.61247 -1.74606,0.92798c-0.17778,0.09488 -0.35556,0.18976 -0.53873,0.28751c-0.2195,0.11607 -0.2195,0.11607 -0.44343,0.23448c-0.1463,0.07775 -0.2926,0.15551 -0.44334,0.23562c-0.75455,0.37431 -1.52893,0.70742 -2.29862,1.04951c0,-2.19198 0,-4.38396 0,-6.64237c0.58023,-0.30623 1.16046,-0.61247 1.75827,-0.92798c0.17956,-0.09488 0.35912,-0.18976 0.54412,-0.28751c2.88341,-1.5196 2.88341,-1.5196 3.16779,-1.5196z"/><path id="svg_19" fill="#9E8F82" d="m18.92406,69.49114c0.8096,0.26987 1.47926,0.52079 2.22684,0.89898c0.17159,0.08629 0.34319,0.17257 0.51998,0.26147c0.21371,0.10864 0.42743,0.21727 0.64762,0.3292c0.68499,0.34653 1.36999,0.69305 2.07574,1.05008c0,2.19198 0,4.38396 0,6.64237c-0.8096,-0.26987 -1.47926,-0.52079 -2.22684,-0.89898c-0.17159,-0.08629 -0.34319,-0.17257 -0.51998,-0.26147c-0.32057,-0.16295 -0.32057,-0.16295 -0.64762,-0.3292c-0.68499,-0.34653 -1.36999,-0.69305 -2.07574,-1.05008c0,-2.19198 0,-4.38396 0,-6.64237z"/><path id="svg_20" fill="#6C6259" d="m137.7052,170.68954c0,2.12751 0,4.25502 0,6.447c-0.58829,0.31026 -1.17658,0.62052 -1.78269,0.94019c-0.27467,0.14499 -0.27467,0.14499 -0.5549,0.2929c-2.48016,1.30664 -2.48016,1.30664 -2.93723,1.30664c0,-2.12751 0,-4.25502 0,-6.447c0.83408,-0.41906 1.66816,-0.83811 2.52752,-1.26986c0.2634,-0.13259 0.52681,-0.26518 0.7982,-0.40179c0.20577,-0.10313 0.41153,-0.20625 0.62353,-0.31251c0.21178,-0.1064 0.42356,-0.2128 0.64175,-0.32243c0.48846,-0.23314 0.48846,-0.23314 0.68382,-0.23314z"/><path id="svg_21" fill="#9E8F82" d="m46.07962,162.67963c0.77587,0.25862 1.41939,0.48998 2.1345,0.84938c0.17163,0.086 0.34325,0.172 0.52008,0.26061c0.17566,0.08902 0.35131,0.17805 0.53229,0.26977c0.26915,0.13467 0.26915,0.13467 0.54374,0.27206c1.32139,0.66509 1.32139,0.66509 1.54421,0.88791c0.01728,0.47831 0.02252,0.95107 0.01908,1.42936c-0.00028,0.14282 -0.00055,0.28564 -0.00084,0.43279c-0.0011,0.45786 -0.00355,0.9157 -0.00603,1.37356c-0.00098,0.30971 -0.00187,0.61941 -0.00267,0.92912c-0.00216,0.76073 -0.00553,1.52145 -0.00954,2.28217c-0.58623,-0.27648 -1.17227,-0.55335 -1.75827,-0.8303c-0.16395,-0.07731 -0.32789,-0.15463 -0.4968,-0.23428c-0.16243,-0.07681 -0.32487,-0.15362 -0.49222,-0.23276c-0.22099,-0.10436 -0.22099,-0.10436 -0.44644,-0.21082c-0.69726,-0.33656 -1.38858,-0.68532 -2.08108,-1.03157c0,-2.12751 0,-4.25502 0,-6.447z"/></g></g></svg>