<svg width="512" height="512" xmlns="http://www.w3.org/2000/svg" version="1.1">

 <g>
  <title>Layer 1</title>
  <path id="svg_1" fill="#634917" d="m172,60c27.72,0 55.44,0 84,0c0,9.24 0,18.48 0,28c18.48,0 36.96,0 56,0c0,9.24 0,18.48 0,28c18.81,0 37.62,0 57,0c0,8.91 0,17.82 0,27c18.15,0 36.3,0 55,0c0,9.57 0,19.14 0,29c3.70734,-0.08379 7.41469,-0.16758 11.23438,-0.25391c3.58753,-0.07738 7.17511,-0.15292 10.76269,-0.22827c2.49483,-0.05339 4.98963,-0.10872 7.48438,-0.16601c3.58422,-0.08198 7.16853,-0.15703 10.75293,-0.23072c1.11679,-0.02703 2.23358,-0.05407 3.38421,-0.08192c1.04078,-0.0201 2.08156,-0.04019 3.15387,-0.0609c0.91489,-0.01998 1.82978,-0.03997 2.7724,-0.06056c2.32339,0.07787 4.22202,0.48384 6.45514,1.08229c0.76103,9.07703 1.12626,18.04924 1.02173,27.15576c-0.01441,1.84649 -0.01441,1.84649 -0.02912,3.73029c-0.02702,3.32557 -0.05893,6.65103 -0.09315,9.97653c-0.03474,3.49394 -0.06306,6.98794 -0.0921,10.48193c-0.05577,6.59404 -0.11719,13.188 -0.18072,19.78196c-0.07214,7.51647 -0.13786,15.03299 -0.20307,22.54952c-0.13412,15.44141 -0.27702,30.88272 -0.42357,46.32401c-9.24,0 -18.48,0 -28,0c0,9.24 0,18.48 0,28c-9.24,0 -18.48,0 -28,0c0,9.57 0,19.14 0,29c-9.24,0 -18.48,0 -28,0c0,8.91 0,17.82 0,27c-8.91,0 -17.82,0 -27,0c0,9.24 0,18.48 0,28c-9.57,0 -19.14,0 -29,0c0,9.24 0,18.48 0,28c-19.14,0 -38.28,0 -58,0c-1.485,4.95 -1.485,4.95 -3,10c-2.10325,4.79877 -4.51181,9.36521 -6.99414,13.9751c-0.9701,1.95291 -1.70911,3.88644 -2.42773,5.94287c-1.7575,4.15366 -2.97578,6.32865 -6.57813,9.08203c-8.12844,2.00206 -16.774,0.79815 -25,0c-1.02352,-0.08411 -2.04703,-0.16822 -3.10156,-0.25488c-15.64185,-1.32221 -30.7859,-4.57025 -45.89844,-8.74512c-0.88188,-0.2417 -1.76376,-0.4834 -2.67236,-0.73242c-22.7359,-6.42508 -45.17132,-17.48617 -64.32764,-31.26758c-1.06605,-0.75668 -2.13211,-1.51336 -3.23047,-2.29297c-2.97638,-2.17549 -5.88239,-4.41464 -8.76953,-6.70703c-0.97582,-0.77086 -1.95164,-1.54172 -2.95703,-2.33594c-14.95577,-12.09832 -28.847,-26.00277 -40.04297,-41.66406c-0.45278,-0.62439 -0.90557,-1.24878 -1.37207,-1.89209c-6.95271,-9.63365 -13.14824,-19.56698 -18.62793,-30.10791c-0.40605,-0.7794 -0.81211,-1.5588 -1.23047,-2.36182c-19.08523,-37.13546 -25.63322,-76.25205 -24.76953,-117.63818c1.74467,-0.80907 3.49111,-1.61432 5.23828,-2.41797c0.97236,-0.44883 1.94471,-0.89767 2.94653,-1.36011c3.24504,-1.40849 6.38494,-2.38341 9.81519,-3.22192c0.66,-2.97 1.32,-5.94 2,-9c-2.97,-0.33 -5.94,-0.66 -9,-1c0,-9.24 0,-18.48 0,-28c11.25,-0.125 11.25,-0.125 14.77832,-0.11768c5.9993,-0.11404 5.9993,-0.11404 10.90918,-3.25732c1.76816,-4.88348 1.98558,-9.33955 2.0625,-14.5c0.04447,-1.4618 0.04447,-1.4618 0.08984,-2.95312c0.07032,-2.39071 0.1232,-4.78046 0.16016,-7.17188c1.97033,-0.03867 1.97033,-0.03867 3.98047,-0.07812c1.73571,-0.0563 3.47138,-0.11365 5.20703,-0.17188c0.86432,-0.01418 1.72863,-0.02836 2.61914,-0.04297c5.46866,-0.20953 8.02909,-0.91135 12.19336,-4.70703c0.99,0.33 1.98,0.66 3,1c0.33,-8.25 0.66,-16.5 1,-25c9.24,0 18.48,0 28,0c0,-8.91 0,-17.82 0,-27c8.91,0 17.82,0 27,0c0,-9.24 0,-18.48 0,-28c9.57,0 19.14,0 29,0c0,-9.24 0,-18.48 0,-28z"/>
  <path id="svg_2" fill="#E8EAF5" d="m84,167c4.87684,2.66683 9.27993,5.54012 13.625,9c0.89852,0.71241 0.89852,0.71241 1.81519,1.43921c15.67392,12.58891 29.27149,26.50061 38.87231,44.31079c0.33781,0.62608 0.67563,1.25216 1.02368,1.89722c1.94184,3.69838 3.45605,7.35548 4.66382,11.35278c0.99516,0.07477 1.99031,0.14953 3.01563,0.22656c29.33433,2.59357 59.8169,15.78974 82.98437,33.77344c0.75926,0.5298 1.51852,1.05961 2.30078,1.60547c0.56074,0.46019 1.12149,0.92039 1.69922,1.39453c0,0.66 0,1.32 0,2c1.13438,-0.27715 2.26875,-0.5543 3.4375,-0.83984c1.52078,-0.36612 3.04161,-0.73199 4.5625,-1.09766c0.74379,-0.1824 1.48758,-0.3648 2.25391,-0.55273c23.22254,-5.55322 52.8775,-5.02447 74.74609,5.49023c1.67042,1.67042 1.29197,3.56941 1.375,5.875c-0.19127,20.10684 -10.70254,39.78007 -19.375,57.125c12.87,0 25.74,0 39,0c0,-9.24 0,-18.48 0,-28c9.24,0 18.48,0 28,0c0,-9.24 0,-18.48 0,-28c9.24,0 18.48,0 28,0c0,-9.24 0,-18.48 0,-28c9.24,0 18.48,0 28,0c0,18.48 0,36.96 0,56c-9.24,0 -18.48,0 -28,0c0,9.24 0,18.48 0,28c-9.24,0 -18.48,0 -28,0c0,9.24 0,18.48 0,28c-9.24,0 -18.48,0 -28,0c0,9.24 0,18.48 0,28c-15.84,0 -31.68,0 -48,0c0,3.96 0,7.92 0,12c-0.42996,3.96309 -0.91772,7.82526 -1.5625,11.75c-0.17563,1.07129 -0.35127,2.14258 -0.53223,3.24634c-3.0062,17.25786 -7.89177,34.22565 -15.86914,49.86596c-1.0812,2.23069 -1.97903,4.49605 -2.88769,6.80176c-1.98262,4.51599 -3.96014,8.53068 -8.14844,11.33594c-8.09036,2.3478 -16.77495,0.92559 -25,0c-2.02842,-0.17581 -4.05706,-0.34908 -6.08594,-0.51953c-14.60446,-1.39371 -28.79189,-4.57919 -42.91406,-8.48047c-0.88188,-0.2417 -1.76376,-0.4834 -2.67236,-0.73242c-22.7359,-6.42508 -45.17132,-17.48617 -64.32764,-31.26758c-1.06605,-0.75668 -2.13211,-1.51336 -3.23047,-2.29297c-2.97638,-2.17549 -5.88239,-4.41464 -8.76953,-6.70703c-0.97582,-0.77086 -1.95164,-1.54172 -2.95703,-2.33594c-14.95577,-12.09832 -28.847,-26.00277 -40.04297,-41.66406c-0.45278,-0.62439 -0.90557,-1.24878 -1.37207,-1.89209c-6.95271,-9.63365 -13.14824,-19.56698 -18.62793,-30.10791c-0.40605,-0.7794 -0.81211,-1.5588 -1.23047,-2.36182c-19.08523,-37.13546 -25.63322,-76.25205 -24.76953,-117.63818c1.74467,-0.80907 3.49111,-1.61432 5.23828,-2.41797c1.45854,-0.67325 1.45854,-0.67325 2.94653,-1.36011c3.24504,-1.40849 6.38494,-2.38341 9.81519,-3.22192c0.66,-2.97 1.32,-5.94 2,-9c-2.97,-0.33 -5.94,-0.66 -9,-1c0,-9.24 0,-18.48 0,-28c11.25,-0.125 11.25,-0.125 14.77832,-0.11768c5.9993,-0.11404 5.9993,-0.11404 10.90918,-3.25732c1.76816,-4.88348 1.98558,-9.33955 2.0625,-14.5c0.04447,-1.4618 0.04447,-1.4618 0.08984,-2.95312c0.07032,-2.39071 0.1232,-4.78046 0.16016,-7.17188c1.31355,-0.02578 2.62711,-0.05156 3.98047,-0.07812c1.73571,-0.0563 3.47138,-0.11365 5.20703,-0.17188c0.86432,-0.01418 1.72863,-0.02836 2.61914,-0.04297c5.30892,-0.20341 8.32505,-0.70257 12.19336,-4.70703z"/>
  <path id="svg_3" fill="#281B04" d="m312,116c18.81,0 37.62,0 57,0c0,8.91 0,17.82 0,27c18.15,0 36.3,0 55,0c0,9.57 0,19.14 0,29c3.70734,-0.08379 7.41469,-0.16758 11.23438,-0.25391c3.58753,-0.07738 7.17511,-0.15292 10.76269,-0.22827c2.49483,-0.05339 4.98963,-0.10872 7.48438,-0.16601c3.58422,-0.08198 7.16853,-0.15703 10.75293,-0.23072c1.11679,-0.02703 2.23358,-0.05407 3.38421,-0.08192c1.04078,-0.0201 2.08156,-0.04019 3.15387,-0.0609c0.91489,-0.01998 1.82978,-0.03997 2.7724,-0.06056c2.32339,0.07787 4.22202,0.48384 6.45514,1.08229c0.76103,9.07703 1.12626,18.04924 1.02173,27.15576c-0.00961,1.231 -0.01922,2.46199 -0.02912,3.73029c-0.02702,3.32557 -0.05893,6.65103 -0.09315,9.97653c-0.03474,3.49394 -0.06306,6.98794 -0.0921,10.48193c-0.05577,6.59404 -0.11719,13.188 -0.18072,19.78196c-0.07214,7.51647 -0.13786,15.03299 -0.20307,22.54952c-0.13412,15.44141 -0.27702,30.88272 -0.42357,46.32401c-9.24,0 -18.48,0 -28,0c0,9.24 0,18.48 0,28c-9.24,0 -18.48,0 -28,0c0,9.57 0,19.14 0,29c-9.24,0 -18.48,0 -28,0c0,8.91 0,17.82 0,27c-8.91,0 -17.82,0 -27,0c0,9.24 0,18.48 0,28c-9.57,0 -19.14,0 -29,0c0,9.24 0,18.48 0,28c-19.14,0 -38.28,0 -58,0c0.99,-3.63 1.98,-7.26 3,-11c0.94293,-3.96211 1.75498,-7.94576 2.5625,-11.9375c0.20818,-0.97518 0.41637,-1.95035 0.63086,-2.95508c2.04453,-10.08164 2.76547,-19.69567 3.80664,-30.10742c15.84,0 31.68,0 48,0c0,-9.24 0,-18.48 0,-28c9.24,0 18.48,0 28,0c0,-9.24 0,-18.48 0,-28c9.24,0 18.48,0 28,0c0,-9.24 0,-18.48 0,-28c9.24,0 18.48,0 28,0c0,-18.48 0,-36.96 0,-56c-9.24,0 -18.48,0 -28,0c0,-18.48 0,-36.96 0,-56c-9.24,0 -18.48,0 -28,0c0,-18.48 0,-36.96 0,-56c-18.48,0 -36.96,0 -56,0c0,-9.24 0,-18.48 0,-28z"/>
  <path id="svg_4" fill="#B5B5B5" d="m396,256c9.24,0 18.48,0 28,0c0,18.48 0,36.96 0,56c-9.24,0 -18.48,0 -28,0c0,9.24 0,18.48 0,28c-9.24,0 -18.48,0 -28,0c0,9.24 0,18.48 0,28c-9.24,0 -18.48,0 -28,0c0,9.24 0,18.48 0,28c-15.84,0 -31.68,0 -48,0c-0.51563,-5.46562 -1.03125,-10.93125 -1.5625,-16.5625c-0.16573,-1.71131 -0.33145,-3.42262 -0.5022,-5.18579c-0.12621,-1.37681 -0.25182,-2.75368 -0.37671,-4.13062c-0.10483,-1.04746 -0.10483,-1.04746 -0.21179,-2.11609c-0.51612,-5.83068 -0.70911,-11.65712 2.64929,-16.68078c0.39381,-0.60006 0.78762,-1.20012 1.19336,-1.81836c0.41186,-0.60006 0.82371,-1.20012 1.24805,-1.81836c0.40799,-0.61939 0.81598,-1.23879 1.23633,-1.87695c1.63919,-2.46281 3.2298,-4.71418 5.32617,-6.81055c2.94544,-0.10464 5.78762,-0.08884 8.72656,0.02344c0.86282,0.02502 1.72563,0.05005 2.6146,0.07583c2.76167,0.08232 5.52264,0.17886 8.28384,0.27573c1.86976,0.05823 3.73955,0.11553 5.60937,0.17188c4.5891,0.13856 9.17697,0.29635 13.76563,0.45312c0,-9.24 0,-18.48 0,-28c9.24,0 18.48,0 28,0c0,-9.24 0,-18.48 0,-28c9.24,0 18.48,0 28,0c0,-9.24 0,-18.48 0,-28z"/>
  <path id="svg_5" fill="#513010" d="m312,116c18.81,0 37.62,0 57,0c0,8.91 0,17.82 0,27c18.15,0 36.3,0 55,0c0,18.81 0,37.62 0,57c9.24,0 18.48,0 28,0c0,9.24 0,18.48 0,28c-9.24,0 -18.48,0 -28,0c0,9.24 0,18.48 0,28c-9.24,0 -18.48,0 -28,0c0,-18.48 0,-36.96 0,-56c-9.24,0 -18.48,0 -28,0c0,-18.48 0,-36.96 0,-56c-18.48,0 -36.96,0 -56,0c0,-9.24 0,-18.48 0,-28z"/>
  <path id="svg_6" fill="#302104" d="m312,116c18.81,0 37.62,0 57,0c0,8.91 0,17.82 0,27c18.15,0 36.3,0 55,0c0,9.57 0,19.14 0,29c-18.48,0 -36.96,0 -56,0c0,-9.24 0,-18.48 0,-28c-18.48,0 -36.96,0 -56,0c0,-9.24 0,-18.48 0,-28z"/>
  <path id="svg_7" fill="#B5B5B5" d="m300,339c19.8,0.495 19.8,0.495 40,1c0,18.48 0,36.96 0,56c-15.84,0 -31.68,0 -48,0c-0.51563,-5.46563 -1.03125,-10.93125 -1.5625,-16.5625c-0.16573,-1.71131 -0.33145,-3.42262 -0.5022,-5.18579c-0.12621,-1.37681 -0.25182,-2.75368 -0.37671,-4.13062c-0.06989,-0.69831 -0.13978,-1.39661 -0.21179,-2.11609c-0.51694,-5.83987 -0.72315,-11.6723 2.68445,-16.68078c0.39832,-0.60006 0.79664,-1.20012 1.20703,-1.81836c0.62455,-0.90009 0.62455,-0.90009 1.26172,-1.81836c0.82342,-1.22493 1.64635,-2.45017 2.46875,-3.67578c0.67031,-0.99387 1.34062,-1.98774 2.03125,-3.01172c0.33,-0.66 0.66,-1.32 1,-2z"/>
  <path id="svg_8" fill="#302104" d="m143,88c9.57,0 19.14,0 29,0c0,9.24 0,18.48 0,28c-9.24,0 -18.48,0 -28,0c0,9.24 0,18.48 0,28c-9.24,0 -18.48,0 -28,0c0,9.24 0,18.48 0,28c-6.09469,0.06188 -6.09469,0.06188 -12.3125,0.125c-1.27786,0.01821 -2.55573,0.03642 -3.87231,0.05518c-1.00765,0.00499 -2.01529,0.00999 -3.05347,0.01513c-1.54748,0.01571 -1.54748,0.01571 -3.12622,0.03174c-2.6355,-0.22705 -2.6355,-0.22705 -5.6355,-2.22705c-0.34058,-2.70557 -0.34058,-2.70557 -0.29297,-6.10156c0.00749,-1.09136 0.01499,-2.18271 0.02271,-3.30713c0.02731,-1.39138 0.05462,-2.78277 0.08276,-4.21631c0.06188,-4.41375 0.12375,-8.8275 0.1875,-13.375c9.24,0 18.48,0 28,0c0,-8.91 0,-17.82 0,-27c8.91,0 17.82,0 27,0c0,-9.24 0,-18.48 0,-28z"/>
  <path id="svg_9" fill="#302104" d="m172,60c27.72,0 55.44,0 84,0c0,9.24 0,18.48 0,28c-27.72,0 -55.44,0 -84,0c0,-9.24 0,-18.48 0,-28z"/>
  <path id="svg_10" fill="#512D10" d="m320,284c15.84,0 31.68,0 48,0c0,9.24 0,18.48 0,28c-9.24,0 -18.48,0 -28,0c0,9.24 0,18.48 0,28c-12.87,0 -25.74,0 -39,0c2.23483,-6.70449 2.23483,-6.70449 3.95312,-10.03906c4.17457,-8.31451 7.83104,-16.52848 10.48438,-25.46094c0.23429,-0.78713 0.46857,-1.57427 0.70996,-2.38525c1.70862,-6.03066 2.71986,-11.88501 3.85254,-18.11475z"/>
  <path id="svg_11" fill="#B5B5B5" d="m340,312c18.15,0 36.3,0 55,0c0,9.24 0,18.48 0,28c-8.91,0 -17.82,0 -27,0c0,9.24 0,18.48 0,28c-9.24,0 -18.48,0 -28,0c0,-18.48 0,-36.96 0,-56z"/>
  <path id="svg_12" fill="#302104" d="m256,88c18.48,0 36.96,0 56,0c0,9.24 0,18.48 0,28c-18.48,0 -36.96,0 -56,0c0,-9.24 0,-18.48 0,-28z"/>
  <path id="svg_13" fill="#161005" d="m289,424c16.83,0 33.66,0 51,0c0,9.24 0,18.48 0,28c-19.14,0 -38.28,0 -58,0c1.485,-5.445 1.485,-5.445 3,-11c1.32,-5.61 2.64,-11.22 4,-17z"/>
  <path id="svg_14" fill="#512D10" d="m292,396c15.84,0 31.68,0 48,0c0,9.24 0,18.48 0,28c-16.83,0 -33.66,0 -51,0c0.99,-9.24 1.98,-18.48 3,-28z"/>
  <path id="svg_15" fill="#B3B3B3" d="m300,339c3.96,0.33 7.92,0.66 12,1c0,18.15 0,36.3 0,55c9.24,0 18.48,0 28,0c0,0.33 0,0.66 0,1c-15.84,0 -31.68,0 -48,0c-0.51563,-5.46563 -1.03125,-10.93125 -1.5625,-16.5625c-0.16573,-1.71131 -0.33145,-3.42262 -0.5022,-5.18579c-0.12621,-1.37681 -0.25182,-2.75368 -0.37671,-4.13062c-0.06989,-0.69831 -0.13978,-1.39661 -0.21179,-2.11609c-0.51694,-5.83987 -0.72315,-11.6723 2.68445,-16.68078c0.39832,-0.60006 0.79664,-1.20012 1.20703,-1.81836c0.62455,-0.90009 0.62455,-0.90009 1.26172,-1.81836c0.82342,-1.22493 1.64635,-2.45017 2.46875,-3.67578c0.67031,-0.99387 1.34062,-1.98774 2.03125,-3.01172c0.33,-0.66 0.66,-1.32 1,-2z"/>
  <path id="svg_16" fill="#B5B5B5" d="m368,284c9.24,0 18.48,0 28,0c0,8.91 0,17.82 0,27c9.24,0 18.48,0 28,0c0,0.33 0,0.66 0,1c-9.24,0 -18.48,0 -28,0c0,9.24 0,18.48 0,28c-0.33,0 -0.66,0 -1,0c0,-9.24 0,-18.48 0,-28c-8.91,0 -17.82,0 -27,0c0,-9.24 0,-18.48 0,-28z"/>
  <path id="svg_17" fill="#161005" d="m340,396c9.57,0 19.14,0 29,0c0,9.24 0,18.48 0,28c-9.57,0 -19.14,0 -29,0c0,-9.24 0,-18.48 0,-28z"/>
  <path id="svg_18" fill="#512E11" d="m340,368c9.24,0 18.48,0 28,0c0,9.24 0,18.48 0,28c-9.24,0 -18.48,0 -28,0c0,-9.24 0,-18.48 0,-28z"/>
  <path id="svg_19" fill="#512E11" d="m368,340c9.24,0 18.48,0 28,0c0,9.24 0,18.48 0,28c-9.24,0 -18.48,0 -28,0c0,-9.24 0,-18.48 0,-28z"/>
  <path id="svg_20" fill="#D3D3D3" d="m340,340c9.24,0 18.48,0 28,0c0,9.24 0,18.48 0,28c-9.24,0 -18.48,0 -28,0c0,-9.24 0,-18.48 0,-28z"/>
  <path id="svg_21" fill="#512D10" d="m396,312c9.24,0 18.48,0 28,0c0,9.24 0,18.48 0,28c-9.24,0 -18.48,0 -28,0c0,-9.24 0,-18.48 0,-28z"/>
  <path id="svg_22" fill="#161005" d="m452,284c9.24,0 18.48,0 28,0c0,9.24 0,18.48 0,28c-9.24,0 -18.48,0 -28,0c0,-9.24 0,-18.48 0,-28z"/>
  <path id="svg_23" fill="#502C0F" d="m424,284c9.24,0 18.48,0 28,0c0,9.24 0,18.48 0,28c-9.24,0 -18.48,0 -28,0c0,-9.24 0,-18.48 0,-28z"/>
  <path id="svg_24" fill="#43250A" d="m284,228c9.24,0 18.48,0 28,0c0,9.24 0,18.48 0,28c-9.24,0 -18.48,0 -28,0c0,-9.24 0,-18.48 0,-28z"/>
  <path id="svg_25" fill="#43250A" d="m312,200c9.24,0 18.48,0 28,0c0,9.24 0,18.48 0,28c-9.24,0 -18.48,0 -28,0c0,-9.24 0,-18.48 0,-28z"/>
  <path id="svg_26" fill="#43250A" d="m172,200c9.24,0 18.48,0 28,0c0,9.24 0,18.48 0,28c-9.24,0 -18.48,0 -28,0c0,-9.24 0,-18.48 0,-28z"/>
  <path id="svg_27" fill="#533C13" d="m368,172c9.24,0 18.48,0 28,0c0,9.24 0,18.48 0,28c-9.24,0 -18.48,0 -28,0c0,-9.24 0,-18.48 0,-28z"/>
  <path id="svg_28" fill="#43250A" d="m200,172c9.24,0 18.48,0 28,0c0,9.24 0,18.48 0,28c-9.24,0 -18.48,0 -28,0c0,-9.24 0,-18.48 0,-28z"/>
  <path id="svg_29" fill="#512D10" d="m340,144c9.24,0 18.48,0 28,0c0,9.24 0,18.48 0,28c-9.24,0 -18.48,0 -28,0c0,-9.24 0,-18.48 0,-28z"/>
  <path id="svg_30" fill="#43250A" d="m228,144c9.24,0 18.48,0 28,0c0,9.24 0,18.48 0,28c-9.24,0 -18.48,0 -28,0c0,-9.24 0,-18.48 0,-28z"/>
  <path id="svg_31" fill="#502D0F" d="m284,116c9.24,0 18.48,0 28,0c0,9.24 0,18.48 0,28c-9.24,0 -18.48,0 -28,0c0,-9.24 0,-18.48 0,-28z"/>
  <path id="svg_32" fill="#512D10" d="m228,88c9.24,0 18.48,0 28,0c0,9.24 0,18.48 0,28c-9.24,0 -18.48,0 -28,0c0,-9.24 0,-18.48 0,-28z"/>
  <path id="svg_33" fill="#533D13" d="m172,88c9.24,0 18.48,0 28,0c0,9.24 0,18.48 0,28c-9.24,0 -18.48,0 -28,0c0,-9.24 0,-18.48 0,-28z"/>
  <path id="svg_34" fill="#D2D2D2" d="m312,368c9.24,0 18.48,0 28,0c0,8.91 0,17.82 0,27c-9.24,0 -18.48,0 -28,0c0,-8.91 0,-17.82 0,-27z"/>
  <path id="svg_35" fill="#D2D2D2" d="m368,312c8.91,0 17.82,0 27,0c0,9.24 0,18.48 0,28c-8.91,0 -17.82,0 -27,0c0,-9.24 0,-18.48 0,-28z"/>
  <path id="svg_36" fill="#D2D2D2" d="m396,284c9.24,0 18.48,0 28,0c0,8.91 0,17.82 0,27c-9.24,0 -18.48,0 -28,0c0,-8.91 0,-17.82 0,-27z"/>
  <path id="svg_37" fill="#512D10" d="m368,256c8.91,0 17.82,0 27,0c0,9.24 0,18.48 0,28c-8.91,0 -17.82,0 -27,0c0,-9.24 0,-18.48 0,-28z"/>
  <path id="svg_38" fill="#543D15" d="m320,284c15.84,0 31.68,0 48,0c0,0.33 0,0.66 0,1c-9.24,0 -18.48,0 -28,0c0,8.58 0,17.16 0,26c9.24,0 18.48,0 28,0c0,0.33 0,0.66 0,1c-0.65955,0.01031 -1.31909,0.02061 -1.99863,0.03123c-6.84528,0.10792 -13.69044,0.22253 -20.53555,0.34108c-2.55694,0.0434 -5.1139,0.08507 -7.6709,0.125c-3.66871,0.05759 -7.33727,0.12132 -11.00586,0.18628c-1.14899,0.01672 -2.29797,0.03343 -3.48178,0.05065c-1.06095,0.01994 -2.1219,0.03989 -3.21499,0.06044c-1.40565,0.02331 -1.40565,0.02331 -2.8397,0.0471c-2.28773,0.01602 -2.28773,0.01602 -4.25259,1.15822c0.17016,-0.57363 0.34031,-1.14727 0.51562,-1.73828c2.67632,-9.38132 4.45444,-18.6195 6.48438,-28.26172z"/>
  <path id="svg_39" fill="#43250A" d="m292,396c6.6,0 13.2,0 20,0c0,9.24 0,18.48 0,28c-7.59,0 -15.18,0 -23,0c0.99,-9.24 1.98,-18.48 3,-28z"/>
  <path id="svg_40" fill="#979798" d="m300,339c3.96,0.33 7.92,0.66 12,1c0,9.24 0,18.48 0,28c-7.26,0 -14.52,0 -22,0c-1.69666,-6.25084 -1.75073,-10.05237 1.38281,-15.73828c2.71271,-4.52937 5.62645,-8.91199 8.61719,-13.26172z"/>
  <path id="svg_41" fill="#302104" d="m32,200c7.59,0 15.18,0 23,0c-1.21688,2.20688 -2.43375,4.41375 -3.6875,6.6875c-3.7461,6.91047 -6.70803,13.88727 -9.3125,21.3125c-3.3,0 -6.6,0 -10,0c0,-9.24 0,-18.48 0,-28z"/>
  <path id="svg_42" fill="#4D5EBA" d="m91,296c4.02262,1.56435 5.59149,2.38724 8,6c0.60203,3.09122 0.60109,5.90789 0,9c-2.63702,3.31318 -4.10942,4.59223 -8.19141,5.47266c-3.94668,0.26044 -7.01501,-0.13791 -10.30859,-2.41016c-2.82762,-3.46384 -3.51961,-5.52264 -3.74609,-9.90625c0.37704,-3.30361 1.84327,-4.95939 4.24609,-7.15625c3.19761,-1.59881 6.52147,-1.36854 10,-1z"/>
  <path id="svg_43" fill="#4A5BB9" d="m212,354c4.02262,1.56435 5.59149,2.38724 8,6c0.48219,3.04453 0.46285,5.95291 0,9c-1.87621,2.50161 -3.23891,3.61946 -6,5c-4.77256,0.39771 -7.08483,0.47453 -11.375,-1.75c-3.53002,-3.02573 -4.41694,-4.62018 -5,-9.1875c0.46522,-3.79932 1.73892,-5.34888 4.375,-8.0625c3.19761,-1.59881 6.52147,-1.36854 10,-1z"/>
  <path id="svg_44" fill="#533D14" d="m92,172c7.92,0 15.84,0 24,0c0,6.6 0,13.2 0,20c-4.70925,-3.53193 -8.90446,-6.68305 -13.125,-10.625c-3.47351,-3.18405 -6.90118,-5.86522 -10.875,-8.375c0,-0.33 0,-0.66 0,-1z"/>
  <path id="svg_45" fill="#32240A" d="m60,172c5.94,0 11.88,0 18,0c-5.79869,6.83948 -11.65738,13.65738 -18,20c0,-6.6 0,-13.2 0,-20z"/>
  <path id="svg_46" fill="#AEA8A3" d="m368,284c9.24,0 18.48,0 28,0c0,8.91 0,17.82 0,27c9.24,0 18.48,0 28,0c0,0.33 0,0.66 0,1c-9.24,0 -18.48,0 -28,0c0,9.24 0,18.48 0,28c-0.33,0 -0.66,0 -1,0c0,-9.24 0,-18.48 0,-28c-8.91,0 -17.82,0 -27,0c0,-9.24 0,-18.48 0,-28zm1,1c0,8.58 0,17.16 0,26c8.58,0 17.16,0 26,0c0,-8.58 0,-17.16 0,-26c-8.58,0 -17.16,0 -26,0z"/>
  <path id="svg_47" fill="#45270F" d="m311,318c0.33,0 0.66,0 1,0c0,7.26 0,14.52 0,22c-3.63,0 -7.26,0 -11,0c1.52804,-5.09882 3.71037,-9.65666 6.125,-14.375c0.37254,-0.73605 0.74508,-1.47211 1.12891,-2.23047c0.9117,-1.80003 1.82839,-3.59754 2.74609,-5.39453z"/>
  <path id="svg_50" fill="#2D397B" d="m270,490c4,1 4,1 4,1l-4,-1z"/>
  <path id="svg_51" fill="#2D397C" d="m490,270c1,4 1,4 1,4l-1,-4z"/>
  <path id="svg_52" fill="#2D3A7D" d="m490,238c1,4 1,4 1,4l-1,-4z"/>
  <path id="svg_53" fill="#000000" d="m23,216c1,4 1,4 1,4l-1,-4z"/>
  <path id="svg_54" fill="#000000" d="m24,210c1,4 1,4 1,4l-1,-4z"/>
  <path id="svg_55" fill="#000000" d="m25,205c1,4 1,4 1,4l-1,-4z"/>
  <path id="svg_57" fill="#232D61" d="m282,489c3,1 3,1 3,1l-3,-1z"/>
  <path id="svg_58" fill="#232D61"/>
  <path id="svg_59" fill="#242E64"/>
  <path id="svg_60" fill="#000000"/>
  <path id="svg_64" fill="#242E65" d="m290,488c2,1 2,1 2,1l-2,-1z"/>
  <path id="svg_65" fill="#2A3575" d="m296,487c2,1 2,1 2,1l-2,-1z"/>
  <path id="svg_66" fill="#2A3575"/>
  <path id="svg_67" fill="#242E65"/>
  <path id="svg_68" fill="#273069"/>
  <path id="svg_69" fill="#2D387A"/>
  <path id="svg_70" fill="#000000"/>
  <path id="svg_71" fill="#000000"/>
  <path id="svg_72" fill="#000000" d="m194,28c2,1 2,1 2,1l-2,-1z"/>
  <path id="svg_74" fill="#2B3778"/>
  <path id="svg_75" fill="#1D2552"/>
  <path id="svg_76" fill="#2B3677"/>
  <path id="svg_77" fill="#252F67"/>
  <path id="svg_78" fill="#1D2551"/>
  <path id="svg_79" fill="#2F3C83"/>
  <path id="svg_80" fill="#121732"/>
  <path id="svg_81" fill="#1D2551"/>
  <path id="svg_82" fill="#121732"/>
  <path id="svg_83" fill="#121732"/>
  <path id="svg_84" fill="#2F3C83"/>
  <path id="svg_85" fill="#1D2551"/>
  <path id="svg_86" fill="#121631"/>
  <path id="svg_87" fill="#1D2551"/>
  <path id="svg_88" fill="#121631"/>
  <path id="svg_89" fill="#1D2450"/>
  <path id="svg_90" fill="#2A3676"/>
  <path id="svg_91" fill="#2A3676"/>
  <path id="svg_92" fill="#323F8B"/>
  <path id="svg_93" fill="#2E3B82"/>
  <path id="svg_94" fill="#2A3675"/>
  <path id="svg_95" fill="#242E66"/>
  <path id="svg_96" fill="#1D2450"/>
  <path id="svg_97" fill="#111631"/>
  <path id="svg_98" fill="#32408B"/>
  <path id="svg_99" fill="#2A3675"/>
  <path id="svg_100" fill="#121631"/>
  <path id="svg_101" fill="#323F8B"/>
  <path id="svg_102" fill="#242E66"/>
  <path id="svg_103" fill="#111631"/>
  <path id="svg_104" fill="#2A3675"/>
  <path id="svg_105" fill="#111631"/>
  <path id="svg_106" fill="#2A3675"/>
  <path id="svg_107" fill="#111631"/>
  <path id="svg_108" fill="#2A3675"/>
  <path id="svg_109" fill="#242E65"/>
  <path id="svg_110" fill="#111631"/>
  <path id="svg_111" fill="#242E65"/>
  <path id="svg_112" fill="#111631"/>
  <path id="svg_113" fill="#242E65"/>
  <path id="svg_114" fill="#323F8B"/>
  <path id="svg_115" fill="#111630"/>
  <path id="svg_116" fill="#242E65"/>
  <path id="svg_117" fill="#2E3A81"/>
  <path id="svg_118" fill="#111630"/>
  <path id="svg_119" fill="#111630"/>
  <path id="svg_120" fill="#242E65"/>
  <path id="svg_121" fill="#242E65"/>
  <path id="svg_122" fill="#323F8B"/>
  <path id="svg_123" fill="#323F8B"/>
  <path id="svg_124" fill="#323F8B"/>
  <path id="svg_125" fill="#323F8B"/>
  <path id="svg_126" fill="#323F8B"/>
  <path id="svg_127" fill="#323F8B"/>
  <path id="svg_128" fill="#242E65"/>
  <path id="svg_129" fill="#242E65"/>
  <path id="svg_130" fill="#111630"/>
  <path id="svg_131" fill="#111630"/>
  <path id="svg_132" fill="#2E3A81"/>
  <path id="svg_133" fill="#242E65"/>
  <path id="svg_134" fill="#111630"/>
  <path id="svg_135" fill="#323F8B"/>
  <path id="svg_136" fill="#242E65"/>
  <path id="svg_137" fill="#111631"/>
  <path id="svg_138" fill="#242E65"/>
  <path id="svg_139" fill="#111631"/>
  <path id="svg_140" fill="#242E65"/>
  <path id="svg_141" fill="#2A3675"/>
  <path id="svg_142" fill="#111631"/>
  <path id="svg_143" fill="#2A3675"/>
  <path id="svg_144" fill="#111631"/>
  <path id="svg_145" fill="#2A3675"/>
  <path id="svg_146" fill="#111631"/>
  <path id="svg_147" fill="#242E66"/>
  <path id="svg_148" fill="#323F8B"/>
  <path id="svg_149" fill="#121631"/>
  <path id="svg_150" fill="#2A3675"/>
  <path id="svg_151" fill="#32408B"/>
  <path id="svg_152" fill="#111631"/>
  <path id="svg_153" fill="#1D2450"/>
  <path id="svg_154" fill="#242E66"/>
  <path id="svg_155" fill="#2A3675"/>
  <path id="svg_156" fill="#2E3B82"/>
  <path id="svg_157" fill="#323F8B"/>
  <path id="svg_158" fill="#2A3676"/>
  <path id="svg_159" fill="#2A3676"/>
  <path id="svg_160" fill="#1D2450"/>
  <path id="svg_161" fill="#121631"/>
  <path id="svg_162" fill="#1D2551"/>
  <path id="svg_163" fill="#121631"/>
  <path id="svg_164" fill="#1D2551"/>
  <path id="svg_165" fill="#2F3C83"/>
  <path id="svg_166" fill="#121732"/>
  <path id="svg_167" fill="#121732"/>
  <path id="svg_168" fill="#1D2551"/>
  <path id="svg_169" fill="#121731"/>
  <path id="svg_170" fill="#2F3C83"/>
  <path id="svg_171" fill="#1D2551"/>
  <path id="svg_172" fill="#252F67"/>
  <path id="svg_173" fill="#2B3677"/>
  <path id="svg_174" fill="#1D2552"/>
  <path id="svg_175" fill="#2B3677"/>
  <path id="svg_176" fill="#2E397C"/>
  <path id="svg_177" fill="#212958"/>
  <path id="svg_178" fill="#2E3A7D"/>
  <path id="svg_179" fill="#29336F"/>
  <path id="svg_180" fill="#222A5A"/>
  <path id="svg_181" fill="#000000"/>
  <path id="svg_182" fill="#33408A"/>
  <path id="svg_183" fill="#000000"/>
  <path id="svg_184" fill="#000000"/>
  <path id="svg_185" fill="#161C3C"/>
  <path id="svg_186" fill="#232B5E"/>
  <path id="svg_187" fill="#171C3D"/>
  <path id="svg_188" fill="#232C5E"/>
  <path id="svg_189" fill="#313E83"/>
  <path id="svg_190" fill="#313D83"/>
  <path id="svg_191" fill="#313E84"/>
  <path id="svg_192" fill="#2C3876"/>
  <path id="svg_193" fill="#242E61"/>
  <path id="svg_194" fill="#181E40"/>
  <path id="svg_195" fill="#313F85"/>
  <path id="svg_196" fill="#181F42"/>
  <path id="svg_197" fill="#2D3878"/>
  <path id="svg_198" fill="#181F42"/>
  <path id="svg_199" fill="#333F87"/>
  <path id="svg_200" fill="#191F42"/>
  <path id="svg_201" fill="#334087"/>
  <path id="svg_202" fill="#192043"/>
  <path id="svg_203" fill="#334087"/>
  <path id="svg_204" fill="#2E397A"/>
  <path id="svg_205" fill="#1A2045"/>
  <path id="svg_206" fill="#2E3A7B"/>
  <path id="svg_207" fill="#1A2145"/>
  <path id="svg_208" fill="#2F3A7C"/>
  <path id="svg_209" fill="#1A2146"/>
  <path id="svg_210" fill="#2F3B7E"/>
  <path id="svg_211" fill="#1B2248"/>
  <path id="svg_212" fill="#1B2248"/>
  <path id="svg_213" fill="#313C80"/>
  <path id="svg_214" fill="#303C7F"/>
  <path id="svg_215" fill="#333F84"/>
  <path id="svg_216" fill="#333F85"/>
  <path id="svg_217" fill="#1F264F"/>
  <path id="svg_218" fill="#1E264F"/>
  <path id="svg_219" fill="#344187"/>
  <path id="svg_220" fill="#1F2751"/>
  <path id="svg_221" fill="#354189"/>
  <path id="svg_222" fill="#202853"/>
  <path id="svg_223" fill="#354189"/>
  <path id="svg_224" fill="#212955"/>
  <path id="svg_225" fill="#35438A"/>
  <path id="svg_226" fill="#222B58"/>
  <path id="svg_227" fill="#222B59"/>
  <path id="svg_228" fill="#232C5A"/>
  <path id="svg_229" fill="#232C5C"/>
  <path id="svg_230" fill="#252D5E"/>
  <path id="svg_231" fill="#323E7F"/>
  <path id="svg_232" fill="#333F83"/>
  <path id="svg_233" fill="#283165"/>
  <path id="svg_234" fill="#354287"/>
  <path id="svg_235" fill="#293267"/>
  <path id="svg_236" fill="#354288"/>
  <path id="svg_237" fill="#293369"/>
  <path id="svg_238" fill="#2B356C"/>
  <path id="svg_239" fill="#000000"/>
  <path id="svg_240" fill="#000000"/>
  <path id="svg_241" fill="#000000"/>
  <path id="svg_242" fill="#313D7B"/>
 </g>
</svg>